<?xml version="1.0" standalone="no"?>
<!DOCTYPE svg PUBLIC "-//W3C//DTD SVG 20010904//EN"
 "http://www.w3.org/TR/2001/REC-SVG-20010904/DTD/svg10.dtd">
<svg version="1.0" xmlns="http://www.w3.org/2000/svg"
 width="436.000000pt" height="573.000000pt" viewBox="0 0 436.000000 573.000000"
 preserveAspectRatio="xMidYMid meet">

<g transform="translate(0.000000,573.000000) scale(0.100000,-0.100000)"
fill="#000000" stroke="none">
<path d="M2300 5262 c-35 -1 -70 -8 -78 -14 -7 -6 -32 -11 -55 -10 -39 1 -40
0 -19 -11 22 -13 20 -14 -31 -30 -29 -9 -78 -20 -108 -23 -29 -3 -57 -11 -60
-16 -4 -6 -16 -9 -27 -6 -13 4 -29 -3 -46 -19 -15 -13 -50 -32 -79 -40 -65
-21 -63 -20 -88 -22 -12 0 -23 -10 -26 -22 -5 -16 -11 -19 -30 -14 l-24 6 27
-41 c25 -38 26 -43 15 -97 -6 -31 -11 -73 -11 -93 0 -27 -7 -43 -30 -65 -36
-35 -37 -39 -4 -78 23 -28 25 -35 19 -89 l-7 -58 31 -6 c25 -5 31 -11 31 -33
0 -22 3 -19 21 19 18 40 22 43 31 26 10 -18 11 -18 32 2 80 77 167 152 176
152 13 0 13 -2 -6 -67 -9 -30 -13 -57 -10 -60 3 -4 7 -4 9 -2 69 103 241 203
416 243 90 21 268 14 319 -12 27 -14 36 -15 53 -4 11 7 28 10 38 7 15 -4 19
-21 24 -96 5 -78 9 -94 27 -106 12 -8 25 -26 31 -40 8 -22 10 -23 25 -9 8 9
20 16 25 16 5 0 18 19 30 42 20 40 21 47 9 108 -7 36 -23 82 -36 102 -27 43
-31 83 -9 92 23 8 20 83 -4 95 -10 6 -21 23 -24 38 -9 46 -71 75 -144 68 -47
-5 -55 -4 -41 7 14 10 12 14 -25 31 -23 11 -55 21 -72 23 -16 3 -43 8 -60 13
l-30 9 30 2 30 2 -30 10 c-58 19 -178 27 -243 16 -82 -13 -116 -1 -47 18 28 8
68 14 90 15 36 0 96 17 68 18 -6 1 -17 2 -25 4 -7 2 -42 1 -78 -1z m-120 -92
c0 -11 -86 -7 -97 4 -3 3 17 6 45 6 29 0 52 -5 52 -10z m83 3 c-7 -2 -21 -2
-30 0 -10 3 -4 5 12 5 17 0 24 -2 18 -5z m376 -57 c13 -7 19 -16 14 -19 -5 -3
-22 3 -39 14 -32 21 -12 26 25 5z m-132 -22 c-3 -3 -12 -4 -19 -1 -8 3 -5 6 6
6 11 1 17 -2 13 -5z m-40 -10 c-3 -3 -12 -4 -19 -1 -8 3 -5 6 6 6 11 1 17 -2
13 -5z m-397 -34 c-6 -11 -35 -35 -64 -54 -30 -19 -57 -39 -60 -45 -4 -5 -21
-20 -39 -33 l-32 -23 23 32 c24 33 78 83 91 83 5 0 25 14 46 30 44 35 49 37
35 10z m-150 -8 c0 -14 -72 -102 -83 -102 -5 0 -3 8 4 17 15 18 16 18 -38 -4
-32 -13 -2 17 38 37 21 11 45 29 51 40 13 20 28 27 28 12z m667 -108 c-3 -3
-12 -4 -19 -1 -8 3 -5 6 6 6 11 1 17 -2 13 -5z"/>
<path d="M1867 5169 c7 -7 15 -10 18 -7 3 3 -2 9 -12 12 -14 6 -15 5 -6 -5z"/>
<path d="M1856 4440 c-34 -11 -64 -36 -82 -71 -18 -35 -61 -44 -67 -15 -3 13
-5 9 -6 -11 0 -18 -5 -33 -11 -33 -16 0 -11 -21 9 -38 10 -10 28 -50 40 -89
37 -125 109 -182 229 -183 34 0 77 6 95 14 69 29 117 104 125 192 5 55 24 74
77 74 53 0 72 -18 79 -77 15 -129 95 -203 219 -203 75 0 142 25 175 66 29 37
71 136 71 171 1 16 11 24 39 33 71 22 67 19 51 34 -24 23 -207 57 -305 57
-104 0 -165 -13 -209 -45 -25 -18 -38 -21 -80 -15 -27 4 -68 4 -90 2 -33 -4
-49 0 -79 21 -33 22 -36 26 -16 26 20 0 22 4 16 32 -4 18 -12 38 -19 45 -16
16 -220 27 -261 13z m162 -68 c13 -4 -24 -7 -82 -7 -57 0 -102 3 -100 7 6 9
149 9 182 0z m-68 -53 c-25 -4 -58 -7 -75 -7 l-30 0 30 8 c17 4 50 8 75 8 l45
-1 -45 -8z m750 -2 c59 -16 72 -41 59 -122 -20 -124 -78 -175 -198 -175 -44 0
-66 6 -92 23 -73 49 -104 135 -73 203 l18 39 6 -55 c3 -40 9 -56 21 -58 13 -2
15 3 12 23 -3 15 -1 25 6 25 6 0 11 -5 11 -12 0 -27 34 -48 76 -48 34 0 47 5
63 26 12 15 21 40 21 55 0 16 3 29 8 29 15 0 54 -33 61 -52 7 -19 7 -19 31 0
l23 19 -35 26 c-19 15 -68 36 -109 46 l-74 19 60 0 c33 0 80 -5 105 -11z
m-663 -3 c-3 -3 -12 -4 -19 -1 -8 3 -5 6 6 6 11 1 17 -2 13 -5z m480 0 c-3 -3
-12 -4 -19 -1 -8 3 -5 6 6 6 11 1 17 -2 13 -5z m-537 -59 c0 -18 -31 -28 -44
-15 -8 8 -6 15 8 25 21 16 36 11 36 -10z m-63 -7 c-8 -29 18 -76 47 -84 46
-11 80 0 102 33 16 25 23 29 28 18 3 -8 3 -22 0 -30 -4 -10 0 -15 14 -15 13 0
22 8 25 23 3 17 5 15 6 -8 1 -40 -36 -113 -72 -139 -41 -30 -142 -34 -194 -7
-51 25 -94 103 -92 165 1 23 3 34 6 26 7 -23 64 -66 98 -74 l30 -8 -28 30
c-26 27 -27 32 -15 53 23 42 54 54 45 17z m613 8 c0 -15 -27 -29 -40 -21 -5 3
-7 12 -3 20 7 19 43 20 43 1z m-550 -56 c8 -5 11 -12 7 -16 -4 -4 -15 0 -24 9
-18 18 -8 23 17 7z m550 -5 c7 -8 8 -15 2 -15 -5 0 -15 7 -22 15 -7 8 -8 15
-2 15 5 0 15 -7 22 -15z"/>
<path d="M2457 4441 c-53 -8 -67 -21 -67 -64 0 -23 4 -27 18 -23 53 17 213 47
254 48 27 1 48 4 48 8 0 26 -160 45 -253 31z"/>
<path d="M1630 4238 c0 -24 3 -61 7 -83 6 -36 7 -37 13 -15 5 19 12 25 33 23
24 -2 26 1 20 30 -5 31 -48 87 -65 87 -4 0 -8 -19 -8 -42z"/>
<path d="M1745 3974 c6 -24 -3 -54 -16 -54 -4 0 -18 10 -30 23 l-22 22 19 -33
c10 -19 33 -40 50 -47 25 -10 33 -22 43 -61 31 -117 64 -187 125 -261 33 -41
67 -86 74 -99 13 -24 15 -107 9 -339 0 -28 3 -59 7 -70 7 -19 8 -19 21 5 8 14
15 43 15 65 0 47 13 71 30 60 7 -4 16 -2 20 5 11 18 46 -24 61 -75 17 -57 70
-121 92 -112 14 5 17 20 17 77 0 39 -5 91 -11 115 -6 25 -8 65 -5 90 7 44 8
45 45 45 52 0 134 26 163 51 l23 21 -30 -18 c-24 -16 -50 -19 -140 -19 -171 0
-169 -1 -360 305 -89 144 -180 288 -195 310 -8 12 -9 11 -5 -6z"/>
<path d="M2143 3864 c-8 -21 12 -37 76 -59 53 -18 54 -18 68 0 7 11 25 20 41
22 41 5 54 12 47 23 -4 7 -30 8 -70 4 -50 -5 -68 -3 -86 10 -30 20 -68 21 -76
0z"/>
<path d="M2143 3702 c-40 -1 -73 -7 -73 -12 0 -6 4 -10 8 -10 4 0 27 -18 51
-40 50 -46 110 -67 155 -52 30 10 30 10 -14 11 -52 1 -93 19 -98 42 -2 14 16
17 129 23 180 10 201 21 55 30 -65 4 -124 9 -130 10 -6 1 -44 0 -83 -2z"/>
<path d="M2667 3561 l-38 -38 0 -96 c-1 -52 2 -105 6 -116 12 -37 -14 -213
-36 -243 -30 -43 -8 -32 26 12 17 21 33 39 37 40 14 0 21 -53 9 -71 -6 -10
-11 -30 -11 -44 0 -18 -4 -23 -15 -19 -21 8 -19 -13 3 -26 15 -10 15 -10 -3
-8 -16 2 -19 -2 -17 -21 1 -17 -2 -22 -12 -18 -15 6 -15 -20 0 -46 6 -9 4 -9
-8 1 -19 15 -33 0 -24 -24 3 -8 2 -12 -4 -9 -5 3 -25 -10 -45 -30 -20 -19 -43
-35 -51 -35 -8 0 -17 -7 -20 -15 -4 -8 -10 -13 -15 -10 -11 7 -30 -30 -21 -40
4 -5 2 -5 -5 -1 -6 3 -36 3 -67 0 -50 -6 -54 -8 -43 -25 14 -23 45 -24 73 -4
12 8 24 11 28 8 3 -3 15 2 26 12 11 10 20 15 20 11 0 -3 11 1 25 10 14 9 22
20 19 25 -3 5 1 9 9 9 8 0 26 9 39 20 14 10 28 16 32 13 3 -3 6 1 6 10 0 9 6
17 14 17 19 0 47 45 40 64 -3 9 -1 16 5 16 33 0 -6 -170 -65 -282 -14 -27 -23
-48 -20 -48 9 0 -83 -89 -109 -106 -14 -9 -21 -22 -18 -30 3 -8 1 -14 -5 -14
-6 0 -12 5 -14 11 -3 8 -13 7 -33 -3 -23 -11 -40 -12 -70 -5 -22 5 -55 10 -73
10 -20 1 -31 6 -28 14 3 7 -5 15 -17 19 -12 4 -27 14 -34 23 -6 9 -16 16 -22
16 -6 0 -11 4 -10 9 0 5 -6 13 -15 18 -9 5 -16 15 -16 22 0 7 -8 21 -18 32
-10 10 -30 45 -46 77 -16 31 -33 57 -38 57 -4 0 -8 7 -8 15 0 8 -9 32 -20 52
-11 21 -20 32 -20 25 0 -6 -4 -12 -9 -12 -6 0 -4 12 4 26 7 15 11 33 8 40 -3
8 1 14 11 14 19 0 21 -11 5 -27 -14 -14 -1 -38 49 -86 37 -37 132 -77 132 -57
0 10 -14 14 -37 11 -7 -1 -13 5 -13 14 0 8 -5 14 -11 12 -6 -1 -14 4 -17 12
-2 8 -1 11 4 9 5 -3 31 -15 57 -27 26 -12 45 -26 42 -31 -3 -5 -1 -11 5 -15 5
-3 10 -1 10 4 0 6 5 11 10 11 6 0 10 -6 10 -14 0 -8 10 -14 23 -13 12 0 29 -3
37 -7 11 -4 16 -1 17 13 1 13 -6 21 -25 24 -55 11 -62 13 -74 25 -7 7 -18 12
-25 12 -7 0 -29 9 -49 20 -28 16 -39 18 -50 9 -12 -10 -19 -8 -34 9 -21 23
-27 37 -10 27 6 -3 10 4 10 16 0 21 -1 21 -19 5 -17 -15 -19 -15 -32 1 -12 15
-12 16 3 11 10 -4 19 -1 23 10 3 9 1 18 -4 20 -6 2 -11 10 -11 18 0 9 -9 12
-27 10 -16 -2 -22 -1 -15 1 14 5 16 19 3 27 -5 3 -7 14 -4 24 2 10 -3 24 -11
31 -17 14 -20 38 -10 65 5 14 8 14 30 -1 14 -9 26 -14 28 -12 2 2 -2 41 -9 87
-7 46 -10 116 -7 155 l5 72 -22 -27 c-13 -16 -31 -28 -41 -28 -11 0 -31 -12
-45 -27 -27 -29 -27 -31 -9 -123 5 -23 3 -23 -26 10 -18 19 -27 26 -22 15 6
-11 22 -32 35 -47 19 -22 27 -47 35 -115 17 -129 20 -183 12 -178 -4 2 -10 33
-13 67 -3 35 -13 81 -23 103 -20 49 -161 265 -172 265 -11 0 -73 86 -89 123
-7 16 -13 38 -13 48 0 11 -4 19 -10 19 -5 0 -10 9 -10 20 0 10 -10 25 -22 31
-13 6 -20 8 -16 4 4 -5 4 -13 -1 -19 -9 -12 -63 -192 -64 -213 0 -7 -4 -13 -9
-13 -5 0 -6 -5 -2 -11 3 -6 1 -15 -5 -19 -7 -4 -15 -25 -18 -47 -4 -34 -2 -43
17 -56 14 -9 19 -20 14 -28 -5 -9 -2 -10 12 -4 23 9 65 8 76 -3 12 -12 -59
-91 -96 -106 -44 -18 -246 -69 -252 -64 -6 7 -94 -76 -94 -88 0 -6 -9 -19 -21
-30 -12 -10 -31 -37 -44 -59 -23 -40 -23 -44 -29 -543 -7 -522 -10 -565 -56
-731 -23 -87 -25 -148 -5 -175 24 -32 18 -63 -25 -126 l-40 -59 0 -111 c0
-107 -12 -181 -55 -335 -7 -27 -23 -97 -35 -155 -20 -99 -46 -217 -55 -250 -3
-8 -16 -55 -30 -105 -13 -50 -25 -91 -25 -92 0 -8 1325 -4 1353 3 10 3 20 19
24 35 3 17 10 26 17 22 6 -3 6 0 -1 8 -14 14 -17 51 -6 63 4 4 6 26 4 49 -2
34 0 40 10 29 22 -21 33 -13 13 10 -10 12 -13 18 -6 14 7 -4 12 -1 12 8 0 9
-6 16 -12 16 -10 0 -10 2 -2 8 16 9 21 43 10 61 -7 11 -5 13 7 8 10 -3 17 -2
17 3 0 6 -4 10 -10 10 -5 0 -10 5 -10 11 0 5 5 7 10 4 6 -3 10 -2 10 4 0 5 -6
12 -12 14 -10 4 -10 8 1 15 11 8 11 10 0 15 -10 4 -11 8 -3 14 6 4 11 28 12
53 0 25 1 110 2 190 1 100 5 147 13 153 9 7 9 10 -1 14 -10 4 -10 8 0 20 10
12 9 18 -7 29 -17 13 -18 16 -5 24 8 5 10 10 4 10 -16 0 -25 103 -10 112 8 6
8 8 0 8 -7 0 -14 9 -17 20 -3 11 0 20 5 20 7 0 7 5 -1 13 -18 22 -60 200 -81
341 -22 151 -24 170 -45 411 -9 99 -22 234 -30 300 -8 66 -17 165 -20 220 -4
55 -8 110 -10 123 -3 20 -7 157 -6 192 1 8 20 -22 42 -65 43 -82 131 -219 148
-229 5 -4 12 -19 16 -35 3 -16 13 -35 21 -42 8 -6 14 -20 14 -30 0 -11 13 -47
29 -81 16 -35 37 -84 46 -110 10 -26 24 -53 31 -59 8 -6 14 -17 14 -25 0 -7 9
-19 21 -27 15 -11 17 -16 7 -20 -7 -2 -10 -7 -7 -11 3 -3 14 3 23 13 18 19 17
21 -9 45 -14 14 -27 31 -29 38 -1 7 -9 24 -18 37 -10 13 -15 28 -12 33 3 4 0
8 -6 8 -6 0 -9 4 -6 9 4 5 1 11 -5 13 -6 2 -11 16 -11 32 0 15 -7 30 -14 33
-8 3 -14 13 -14 23 0 11 -4 22 -10 25 -5 3 -10 15 -10 25 0 10 -7 26 -16 35
-27 27 -10 27 48 0 62 -28 156 -46 144 -27 -4 7 -1 12 8 12 8 0 17 6 20 13 4
6 4 2 2 -10 -2 -13 0 -23 5 -23 5 0 9 5 9 11 0 6 7 8 16 5 11 -4 15 -2 11 8
-3 8 0 17 8 20 8 3 15 0 17 -6 3 -7 14 -5 32 7 20 14 24 20 14 26 -8 5 7 8 37
6 l49 -2 2 35 c1 55 3 62 16 54 7 -4 8 -3 4 5 -11 17 16 82 31 77 16 -6 16 -1
3 24 -8 15 -6 24 10 40 14 14 18 28 14 45 -5 21 -3 24 11 18 16 -5 17 -2 11
30 -6 33 -5 35 15 30 19 -5 21 -3 15 13 -15 40 -18 74 -7 88 10 12 8 17 -7 25
-11 6 -22 7 -26 4 -3 -3 -6 -1 -6 6 0 7 8 11 18 9 9 -2 22 3 29 12 10 12 11
11 6 -9 -4 -15 -2 -22 4 -18 37 23 81 -410 89 -878 7 -342 -5 -533 -50 -798
-14 -78 -27 -200 -31 -272 -3 -71 -8 -159 -10 -195 -3 -36 -7 -121 -10 -190
-3 -69 -10 -197 -15 -285 -5 -88 -10 -174 -10 -191 l0 -30 624 -2 c593 -3 625
-2 629 15 4 15 5 16 6 1 1 -14 14 -16 106 -15 91 2 106 4 120 22 14 19 15 19
8 1 -4 -13 -3 -17 5 -12 7 4 12 21 12 39 0 42 -89 390 -102 398 -5 3 -9 9 -9
13 1 3 1 14 1 24 0 15 -2 15 -11 2 -7 -11 -8 -5 -3 22 4 23 -2 70 -15 128 -12
50 -26 142 -32 203 -11 126 -40 248 -71 290 -12 18 -24 61 -33 120 -7 51 -33
173 -58 272 -68 268 -114 532 -132 755 -17 214 -56 582 -62 590 -3 3 -11 -3
-18 -13 -12 -17 -14 -16 -33 10 -10 15 -17 33 -15 39 2 6 -4 17 -14 25 -15 12
-16 12 -10 -3 10 -27 -22 -11 -70 36 -80 77 -111 102 -122 98 -6 -2 -11 0 -11
5 0 5 -10 9 -22 10 -11 1 -24 7 -28 13 -4 7 -10 12 -13 11 -12 -1 -76 29 -81
38 -3 5 1 25 9 45 21 51 19 66 -10 66 -29 0 -48 30 -39 64 6 25 -21 127 -43
161 -12 18 -13 16 -13 -16 0 -33 -4 -38 -52 -64 -29 -16 -70 -41 -90 -55 -20
-15 -52 -33 -69 -41 -47 -19 -82 -60 -130 -151 -40 -77 -42 -85 -40 -165 0
-47 3 -88 5 -92 3 -4 1 -13 -4 -21 -6 -9 -10 1 -15 32 -18 121 33 373 88 436
11 12 17 22 12 22 -5 0 -20 -10 -34 -22 l-25 -23 16 26 c17 26 15 62 -4 86 -6
7 -3 15 8 21 11 6 13 11 5 16 -6 4 -11 4 -11 1 0 -14 -59 37 -65 55 -9 27 -14
25 -58 -19z m47 8 c-3 -5 -10 -7 -15 -3 -5 3 -7 10 -3 15 3 5 10 7 15 3 5 -3
7 -10 3 -15z m-4 -29 c0 -5 -4 -10 -10 -10 -5 0 -10 5 -10 10 0 6 5 10 10 10
6 0 10 -4 10 -10z m415 -166 c-24 -24 -30 -9 -8 19 12 18 19 21 21 11 2 -8 -4
-21 -13 -30z m87 -202 c10 -10 7 -17 -10 -35 l-23 -22 -35 38 c-19 21 -32 41
-29 46 6 11 80 -10 97 -27z m-1282 -252 c0 -5 -5 -10 -11 -10 -5 0 -7 5 -4 10
3 6 8 10 11 10 2 0 4 -4 4 -10z m420 -240 c0 -5 -2 -10 -4 -10 -3 0 -8 5 -11
10 -3 6 -1 10 4 10 6 0 11 -4 11 -10z m-330 -56 c0 -8 -5 -12 -10 -9 -6 4 -8
11 -5 16 9 14 15 11 15 -7z m1288 -1136 c-14 -39 -34 -57 -65 -58 -13 0 -23
-6 -23 -13 0 -8 -8 -22 -19 -31 -17 -16 -19 -16 -24 5 -6 24 11 59 29 59 7 0
19 12 29 26 12 18 13 24 4 19 -8 -3 -5 1 5 9 11 9 32 16 47 16 27 0 28 -1 17
-32z m-1724 -50 c59 -49 76 -68 76 -83 0 -8 -4 -15 -10 -15 -5 0 -10 5 -10 10
0 17 -51 60 -88 76 -18 7 -31 18 -27 24 10 16 30 12 59 -12z m-543 -755 c13
-16 12 -17 -3 -4 -10 7 -18 15 -18 17 0 8 8 3 21 -13z m2844 -61 c-6 -5 -23
-14 -40 -19 -125 -44 -125 -44 -125 -69 0 -13 5 -24 11 -24 6 0 8 -8 4 -19 -3
-11 -1 -22 5 -26 6 -3 7 -11 4 -17 -13 -20 25 -37 59 -27 54 15 55 8 2 -10
-49 -16 -50 -16 -62 4 -15 26 -39 143 -31 150 9 9 150 63 168 64 8 1 10 -2 5
-7z m5 -32 c-24 -15 -37 -11 -16 5 11 8 22 12 25 9 3 -3 -1 -9 -9 -14z m-2884
-46 c18 -14 18 -14 -6 -3 -31 14 -36 19 -24 19 6 0 19 -7 30 -16z m2942 -49
c-2 -6 -7 -9 -11 -7 -13 4 -20 -29 -8 -41 9 -9 14 -8 21 3 6 9 10 10 10 3 0
-17 -15 -24 -34 -17 -19 7 -20 27 -5 55 10 20 34 23 27 4z m-562 -70 c3 -14 4
-32 0 -40 -10 -28 -24 -15 -28 25 -4 45 17 57 28 15z m-2431 -29 c11 -8 16
-15 10 -15 -5 0 -23 11 -40 25 -31 26 -6 18 30 -10z m2852 -142 c31 -8 30 -24
-1 -22 -20 2 -27 10 -35 45 -14 53 -12 70 2 20 7 -26 18 -39 34 -43z m-2926
49 c13 -16 12 -17 -3 -4 -10 7 -18 15 -18 17 0 8 8 3 21 -13z m3054 -38 c-46
-20 -102 -30 -89 -15 6 6 27 14 45 17 19 3 36 7 38 9 2 2 11 4 20 3 9 0 3 -6
-14 -14z m-3048 -37 c-3 -8 -6 -5 -6 6 -1 11 2 17 5 13 3 -3 4 -12 1 -19z
m-53 -70 c6 -4 16 -6 23 -3 7 2 10 -2 6 -11 -8 -22 -47 7 -50 37 -1 19 -1 20
4 4 3 -11 10 -23 17 -27z m43 20 c-3 -8 -6 -5 -6 6 -1 11 2 17 5 13 3 -3 4
-12 1 -19z m3193 7 c0 -11 -140 -73 -145 -64 -3 5 22 22 57 38 61 28 88 36 88
26z"/>
<path d="M2906 3575 c-3 -8 -1 -15 4 -15 6 0 10 7 10 15 0 8 -2 15 -4 15 -2 0
-6 -7 -10 -15z"/>
<path d="M2755 3570 c-3 -5 1 -10 10 -10 9 0 13 5 10 10 -3 6 -8 10 -10 10 -2
0 -7 -4 -10 -10z"/>
<path d="M2565 3479 c-11 -17 1 -21 15 -4 8 9 8 15 2 15 -6 0 -14 -5 -17 -11z"/>
<path d="M2504 3428 l-29 -31 38 28 c38 28 44 35 29 35 -5 0 -21 -14 -38 -32z"/>
<path d="M1637 3413 c-8 -12 30 -93 56 -121 12 -13 31 -29 42 -34 13 -7 10 -2
-8 15 -15 15 -41 54 -56 87 -16 34 -31 57 -34 53z"/>
<path d="M1216 2974 c-5 -14 -4 -15 9 -4 17 14 19 20 6 20 -5 0 -12 -7 -15
-16z"/>
<path d="M2704 2866 c-10 -25 0 -38 13 -17 8 13 9 22 3 26 -6 4 -13 -1 -16 -9z"/>
<path d="M2040 2801 c0 -6 5 -13 10 -16 6 -3 10 1 10 9 0 9 -4 16 -10 16 -5 0
-10 -4 -10 -9z"/>
<path d="M2605 2540 c-3 -5 -1 -10 4 -10 6 0 11 5 11 10 0 6 -2 10 -4 10 -3 0
-8 -4 -11 -10z"/>
<path d="M2527 2368 c-7 -27 -5 -30 17 -22 9 4 16 13 14 22 -5 25 -25 25 -31
0z"/>
<path d="M2522 2310 c-6 -11 -12 -30 -12 -43 0 -13 -4 -27 -9 -32 -14 -16 -24
-105 -12 -105 6 0 11 9 11 19 0 11 4 22 9 26 6 3 9 13 9 23 -1 19 6 51 21 100
11 36 2 42 -17 12z"/>
<path d="M2456 2098 c-18 -25 -21 -58 -7 -58 10 0 24 18 27 35 1 6 5 18 9 28
10 25 -11 21 -29 -5z"/>
<path d="M2370 2050 c-37 -8 -32 -14 10 -10 14 1 29 6 35 11 10 10 7 10 -45
-1z"/>
<path d="M2460 2030 c0 -5 -24 -10 -54 -10 -79 0 -118 -29 -130 -98 -11 -59
-26 -69 -26 -18 0 19 -3 37 -7 39 -7 4 -9 -49 -4 -90 0 -7 15 -28 31 -47 23
-25 44 -37 81 -45 61 -13 59 -13 59 -2 0 5 -12 12 -27 14 -27 4 -27 4 4 6 17
0 33 -4 35 -10 5 -15 85 29 93 50 4 10 -2 8 -16 -5 -24 -20 -18 -3 9 29 24 27
16 104 -14 144 -14 18 -21 33 -15 33 5 0 13 -4 16 -10 3 -5 12 -10 18 -10 14
1 -30 40 -44 40 -5 0 -9 -4 -9 -10z m-173 -187 c-4 -3 0 -15 10 -25 9 -10 11
-18 5 -18 -14 0 -34 35 -25 44 3 3 9 6 11 6 3 0 2 -3 -1 -7z m178 -53 c-3 -5
-12 -10 -18 -10 -7 0 -6 4 3 10 19 12 23 12 15 0z"/>
<path d="M2253 1968 c-2 -18 0 -20 7 -8 12 18 13 30 2 30 -4 0 -9 -10 -9 -22z"/>
</g>
</svg>
